<svg width="24" height="24" viewBox="0 0 24 24" fill="none" xmlns="http://www.w3.org/2000/svg">
<g clip-path="url(#clip0_23_271)">
<path d="M12 7C10.9506 7 9.92778 7.33019 9.07645 7.94379C8.22512 8.55739 7.58844 9.4233 7.25658 10.4189C6.92473 11.4144 6.91453 12.4892 7.22743 13.4908C7.54033 14.4925 8.16047 15.3704 9 16V20C9 20.5304 9.21071 21.0391 9.58579 21.4142C9.96086 21.7893 10.4696 22 11 22H13C13.5304 22 14.0391 21.7893 14.4142 21.4142C14.7893 21.0391 15 20.5304 15 20V16C15.8395 15.3704 16.4597 14.4925 16.7726 13.4908C17.0855 12.4892 17.0753 11.4144 16.7434 10.4189C16.4116 9.4233 15.7749 8.55739 14.9236 7.94379C14.0722 7.33019 13.0494 7 12 7ZM13.5 14.59C13.3474 14.6781 13.2208 14.805 13.133 14.9577C13.0452 15.1105 12.9993 15.2838 13 15.46V20H11V15.46C11.0007 15.2838 10.9548 15.1105 10.867 14.9577C10.7792 14.805 10.6526 14.6781 10.5 14.59C10.0451 14.3274 9.66717 13.9499 9.40394 13.4954C9.1407 13.0409 9.00142 12.5252 9 12C9 11.2044 9.31607 10.4413 9.87868 9.87868C10.4413 9.31607 11.2044 9 12 9C12.7956 9 13.5587 9.31607 14.1213 9.87868C14.6839 10.4413 15 11.2044 15 12C14.9986 12.5252 14.8593 13.0409 14.5961 13.4954C14.3328 13.9499 13.9549 14.3274 13.5 14.59Z" fill="#FF7F50"/>
<path d="M12 6C12.2652 6 12.5196 5.89464 12.7071 5.70711C12.8946 5.51957 13 5.26522 13 5V3C13 2.73478 12.8946 2.48043 12.7071 2.29289C12.5196 2.10536 12.2652 2 12 2C11.7348 2 11.4804 2.10536 11.2929 2.29289C11.1054 2.48043 11 2.73478 11 3V5C11 5.26522 11.1054 5.51957 11.2929 5.70711C11.4804 5.89464 11.7348 6 12 6Z" fill="#FF7F50"/>
<path d="M21 11H19C18.7348 11 18.4804 11.1054 18.2929 11.2929C18.1054 11.4804 18 11.7348 18 12C18 12.2652 18.1054 12.5196 18.2929 12.7071C18.4804 12.8946 18.7348 13 19 13H21C21.2652 13 21.5196 12.8946 21.7071 12.7071C21.8946 12.5196 22 12.2652 22 12C22 11.7348 21.8946 11.4804 21.7071 11.2929C21.5196 11.1054 21.2652 11 21 11Z" fill="#FF7F50"/>
<path d="M5 11H3C2.73478 11 2.48043 11.1054 2.29289 11.2929C2.10536 11.4804 2 11.7348 2 12C2 12.2652 2.10536 12.5196 2.29289 12.7071C2.48043 12.8946 2.73478 13 3 13H5C5.26522 13 5.51957 12.8946 5.70711 12.7071C5.89464 12.5196 6 12.2652 6 12C6 11.7348 5.89464 11.4804 5.70711 11.2929C5.51957 11.1054 5.26522 11 5 11Z" fill="#FF7F50"/>
<path d="M7.66 6.42001L6.22 5.00001C6.02507 4.81568 5.76489 4.71634 5.49672 4.72385C5.22854 4.73135 4.97433 4.84507 4.79 5.04001C4.60568 5.23494 4.50634 5.49512 4.51384 5.76329C4.52134 6.03147 4.63507 6.28568 4.83 6.47001L6.27 7.86001C6.36664 7.95332 6.48108 8.0262 6.6065 8.07431C6.73193 8.12242 6.86575 8.14476 7 8.14001C7.13471 8.13949 7.26792 8.11177 7.39164 8.0585C7.51537 8.00523 7.62706 7.92751 7.72 7.83001C7.8985 7.63483 7.99241 7.37688 7.98117 7.11262C7.96992 6.84836 7.85444 6.59932 7.66 6.42001Z" fill="#FF7F50"/>
<path d="M19.19 5.05001C19.0026 4.86376 18.7492 4.75922 18.485 4.75922C18.2208 4.75922 17.9674 4.86376 17.78 5.05001L16.34 6.42001C16.1538 6.60737 16.0492 6.86082 16.0492 7.12501C16.0492 7.38919 16.1538 7.64265 16.34 7.83001C16.4329 7.92751 16.5446 8.00523 16.6684 8.0585C16.7921 8.11177 16.9253 8.1395 17.06 8.14001C17.3175 8.13898 17.5646 8.03869 17.75 7.86001L19.19 6.47001C19.2837 6.37705 19.3581 6.26644 19.4089 6.14459C19.4597 6.02273 19.4858 5.89202 19.4858 5.76001C19.4858 5.628 19.4597 5.49729 19.4089 5.37543C19.3581 5.25357 19.2837 5.14297 19.19 5.05001Z" fill="#FF7F50"/>
</g>
<defs>
<clipPath id="clip0_23_271">
<rect width="24" height="24" fill="white"/>
</clipPath>
</defs>
</svg>
