<svg width="24" height="24" viewBox="0 0 24 24" fill="none" xmlns="http://www.w3.org/2000/svg">
<g clip-path="url(#clip0_23_560)">
<path d="M19.4 7.34L16.66 4.6C16.3024 4.2641 15.8338 4.07136 15.3433 4.05845C14.8529 4.04555 14.3748 4.21337 14 4.53L5.00001 13.53C4.67677 13.856 4.47551 14.2832 4.43001 14.74L4.00001 18.91C3.98654 19.0565 4.00554 19.2041 4.05567 19.3424C4.10579 19.4807 4.18581 19.6062 4.29001 19.71C4.38345 19.8027 4.49426 19.876 4.6161 19.9258C4.73794 19.9755 4.8684 20.0008 5.00001 20H5.09001L9.26001 19.62C9.7168 19.5745 10.144 19.3732 10.47 19.05L19.47 10.05C19.8193 9.68097 20.0081 9.18851 19.995 8.68054C19.9819 8.17257 19.7679 7.69051 19.4 7.34ZM9.08001 17.62L6.08001 17.9L6.35001 14.9L12 9.32L14.7 12.02L9.08001 17.62ZM16 10.68L13.32 8L15.27 6L18 8.73L16 10.68Z" fill="black"/>
</g>
<defs>
<clipPath id="clip0_23_560">
<rect width="24" height="24" fill="white"/>
</clipPath>
</defs>
</svg>
