<svg width="24" height="24" viewBox="0 0 24 24" fill="none" xmlns="http://www.w3.org/2000/svg">
<g clip-path="url(#clip0_32_34)">
<path d="M19.5 20.5H4.5C3.84661 20.508 3.21666 20.2568 2.7481 19.8014C2.27953 19.3459 2.01053 18.7234 2 18.07V5.93C2.01053 5.27665 2.27953 4.65409 2.7481 4.19864C3.21666 3.7432 3.84661 3.49198 4.5 3.5H9.1C9.24771 3.50098 9.39336 3.53467 9.5265 3.59864C9.65964 3.66262 9.77695 3.75529 9.87 3.87L12.47 7.05H19.47C19.796 7.04204 20.1204 7.09872 20.4244 7.21678C20.7285 7.33485 21.0061 7.51194 21.2413 7.73786C21.4765 7.96378 21.6647 8.23404 21.7949 8.53306C21.9251 8.83207 21.9948 9.15391 22 9.48V18.07C21.9895 18.7234 21.7205 19.3459 21.2519 19.8014C20.7833 20.2568 20.1534 20.508 19.5 20.5V20.5ZM4 13.76V18.07C4.00377 18.1314 4.0198 18.1914 4.04714 18.2464C4.07448 18.3015 4.11259 18.3505 4.1592 18.3906C4.20581 18.4307 4.25998 18.461 4.31852 18.4798C4.37706 18.4986 4.43876 18.5055 4.5 18.5H19.5C19.5612 18.5055 19.6229 18.4986 19.6815 18.4798C19.74 18.461 19.7942 18.4307 19.8408 18.3906C19.8874 18.3505 19.9255 18.3015 19.9529 18.2464C19.9802 18.1914 19.9962 18.1314 20 18.07V9.48C19.9962 9.41864 19.9802 9.35866 19.9529 9.30359C19.9255 9.24853 19.8874 9.19951 19.8408 9.15942C19.7942 9.11933 19.74 9.089 19.6815 9.0702C19.6229 9.05141 19.5612 9.04454 19.5 9.05H12C11.8523 9.04903 11.7066 9.01534 11.5735 8.95137C11.4404 8.88739 11.3231 8.79472 11.23 8.68L8.63 5.5H4.5C4.43876 5.49454 4.37706 5.50141 4.31852 5.5202C4.25998 5.539 4.20581 5.56933 4.1592 5.60942C4.11259 5.64951 4.07448 5.69853 4.04714 5.75359C4.0198 5.80865 4.00377 5.86864 4 5.93V13.76Z" fill="black"/>
</g>
<defs>
<clipPath id="clip0_32_34">
<rect width="24" height="24" fill="white"/>
</clipPath>
</defs>
</svg>
