<svg width="31" height="31" viewBox="0 0 31 31" fill="none" xmlns="http://www.w3.org/2000/svg">
<path fill-rule="evenodd" clip-rule="evenodd" d="M15.5 0.112305C7.21573 0.112305 0.5 6.82803 0.5 15.1123C0.5 23.3966 7.21573 30.1123 15.5 30.1123C23.7843 30.1123 30.5 23.3966 30.5 15.1123C30.5 6.82803 23.7843 0.112305 15.5 0.112305ZM12.202 7.16064C13.0554 7.1218 13.3281 7.1123 15.5007 7.1123H15.4983C17.6716 7.1123 17.9433 7.1218 18.7966 7.16064C19.6483 7.19964 20.23 7.33447 20.74 7.53231C21.2666 7.73648 21.7116 8.00981 22.1567 8.45482C22.6017 8.89949 22.875 9.34583 23.08 9.872C23.2767 10.3807 23.4117 10.962 23.4517 11.8137C23.49 12.667 23.5 12.9397 23.5 15.1124C23.5 17.2851 23.49 17.5571 23.4517 18.4104C23.4117 19.2618 23.2767 19.8433 23.08 20.3521C22.875 20.8781 22.6017 21.3245 22.1567 21.7691C21.7121 22.2141 21.2665 22.4881 20.7405 22.6925C20.2315 22.8903 19.6495 23.0251 18.7978 23.0641C17.9444 23.103 17.6726 23.1125 15.4998 23.1125C13.3272 23.1125 13.0547 23.103 12.2014 23.0641C11.3499 23.0251 10.7684 22.8903 10.2594 22.6925C9.73352 22.4881 9.28719 22.2141 8.84268 21.7691C8.39784 21.3245 8.12451 20.8781 7.92 20.3519C7.72234 19.8433 7.5875 19.2619 7.54833 18.4103C7.50967 17.5569 7.5 17.2851 7.5 15.1124C7.5 12.9397 7.51 12.6669 7.54817 11.8135C7.5865 10.9622 7.7215 10.3807 7.91984 9.87183C8.12484 9.34583 8.39818 8.89949 8.84318 8.45482C9.28785 8.00998 9.73419 7.73664 10.2604 7.53231C10.769 7.33447 11.3504 7.19964 12.202 7.16064ZM14.7831 8.55399C14.9224 8.55377 15.0723 8.55384 15.2341 8.55391L15.5007 8.55399C17.6368 8.55399 17.8899 8.56165 18.7335 8.59999C19.5135 8.63565 19.9368 8.76599 20.2188 8.87549C20.5921 9.02049 20.8583 9.19383 21.1381 9.47383C21.4181 9.75383 21.5915 10.0205 21.7368 10.3938C21.8463 10.6755 21.9768 11.0988 22.0123 11.8789C22.0507 12.7222 22.059 12.9755 22.059 15.1106C22.059 17.2456 22.0507 17.4989 22.0123 18.3423C21.9767 19.1223 21.8463 19.5456 21.7368 19.8273C21.5918 20.2006 21.4181 20.4664 21.1381 20.7463C20.8581 21.0263 20.5923 21.1996 20.2188 21.3446C19.9371 21.4546 19.5135 21.5846 18.7335 21.6203C17.8901 21.6586 17.6368 21.667 15.5007 21.667C13.3646 21.667 13.1114 21.6586 12.268 21.6203C11.488 21.5843 11.0647 21.454 10.7825 21.3445C10.4092 21.1995 10.1425 21.0261 9.86252 20.7461C9.58252 20.4661 9.40919 20.2001 9.26385 19.8266C9.15435 19.5449 9.02385 19.1216 8.98835 18.3416C8.95002 17.4982 8.94235 17.2449 8.94235 15.1086C8.94235 12.9722 8.95002 12.7202 8.98835 11.8769C9.02402 11.0968 9.15435 10.6735 9.26385 10.3915C9.40885 10.0182 9.58252 9.7515 9.86252 9.4715C10.1425 9.19149 10.4092 9.01816 10.7825 8.87282C11.0645 8.76282 11.488 8.63282 12.268 8.59699C13.0061 8.56365 13.2921 8.55365 14.7831 8.55199V8.55399ZM19.7711 9.88233C19.2411 9.88233 18.8111 10.3118 18.8111 10.842C18.8111 11.372 19.2411 11.802 19.7711 11.802C20.3011 11.802 20.7311 11.372 20.7311 10.842C20.7311 10.312 20.3011 9.882 19.7711 9.882V9.88233ZM11.3924 15.1124C11.3924 12.8436 13.2318 11.0041 15.5006 11.004C17.7694 11.004 19.6085 12.8435 19.6085 15.1124C19.6085 17.3812 17.7696 19.2199 15.5007 19.2199C13.2319 19.2199 11.3924 17.3812 11.3924 15.1124ZM18.1674 15.1124C18.1674 13.6395 16.9734 12.4457 15.5008 12.4457C14.0279 12.4457 12.8341 13.6395 12.8341 15.1124C12.8341 16.5851 14.0279 17.7791 15.5008 17.7791C16.9734 17.7791 18.1674 16.5851 18.1674 15.1124Z" fill="#163135"/>
</svg>
