<svg width="29" height="30" viewBox="0 0 29 30" fill="none" xmlns="http://www.w3.org/2000/svg">
<path d="M14.5 0.71228C6.547 0.71228 0.0999985 7.15928 0.0999985 15.1123C0.0999985 23.0653 6.547 29.5123 14.5 29.5123C22.453 29.5123 28.9 23.0653 28.9 15.1123C28.9 7.15928 22.453 0.71228 14.5 0.71228ZM10.975 21.0808H8.059V11.6968H10.975V21.0808ZM9.499 10.5448C8.578 10.5448 7.9825 9.89228 7.9825 9.08528C7.9825 8.26178 8.596 7.62878 9.5365 7.62878C10.477 7.62878 11.053 8.26178 11.071 9.08528C11.071 9.89228 10.477 10.5448 9.499 10.5448ZM21.625 21.0808H18.709V15.8803C18.709 14.6698 18.286 13.8478 17.2315 13.8478C16.426 13.8478 15.9475 14.4043 15.736 14.9398C15.658 15.1303 15.6385 15.4003 15.6385 15.6688V21.0793H12.721V14.6893C12.721 13.5178 12.6835 12.5383 12.6445 11.6953H15.178L15.3115 12.9988H15.37C15.754 12.3868 16.6945 11.4838 18.268 11.4838C20.1865 11.4838 21.625 12.7693 21.625 15.5323V21.0808Z" fill="#163135"/>
</svg>
